<?xml version="1.0" encoding="UTF-8" standalone="no"?>
<!DOCTYPE svg PUBLIC "-//W3C//DTD SVG 1.1//EN" "http://www.w3.org/Graphics/SVG/1.1/DTD/svg11.dtd">
<svg width="100%" height="100%" viewBox="0 0 2550 3300" version="1.1" xmlns="http://www.w3.org/2000/svg" xmlns:xlink="http://www.w3.org/1999/xlink" xml:space="preserve" xmlns:serif="http://www.serif.com/" style="fill-rule:evenodd;clip-rule:evenodd;stroke-linejoin:round;stroke-miterlimit:2;">
    <g id="wordmark" transform="matrix(7.22097,0,0,7.22097,-6781.46,-521.772)">
        <text x="990.829px" y="479.451px" style="font-family:'Jost-Book', 'Jost*';font-size:50px;fill:rgb(0,5,89);">NO<tspan x="1067.58px 1095.58px " y="479.451px 479.451px ">VA</tspan></text>
        <text x="1128.58px" y="473.681px" style="font-family:'Jost-Book', 'Jost*';font-size:50px;fill:rgb(0,5,89);">-</text>
        <text x="1139.08px" y="479.451px" style="font-family:'Jost-Book', 'Jost*';font-size:50px;fill:rgb(0,5,89);">V<tspan x="1171.33px 1209.33px " y="479.451px 479.451px ">OX</tspan></text>
    </g>
    <g id="_1-color-with-wordmark" serif:id="1 color with wordmark" transform="matrix(1,0,0,1,52.7915,582.691)">
        <g transform="matrix(4.18492,0,0,4.18492,-3145.42,-356.466)">
            <text x="990.829px" y="479.451px" style="font-family:'Jost-Book', 'Jost*';font-size:50px;fill:rgb(0,5,89);">NO<tspan x="1067.58px 1095.58px " y="479.451px 479.451px ">VA</tspan></text>
            <text x="1128.58px" y="473.681px" style="font-family:'Jost-Book', 'Jost*';font-size:50px;fill:rgb(0,5,89);">-</text>
            <text x="1139.08px" y="479.451px" style="font-family:'Jost-Book', 'Jost*';font-size:50px;fill:rgb(0,5,89);">V<tspan x="1171.33px 1209.33px " y="479.451px 479.451px ">OX</tspan></text>
        </g>
        <g transform="matrix(0.534175,0,0,0.534175,170.318,1072.23)">
            <path d="M684.534,608.064C878.388,531.602 1209.79,832.867 1147.72,1133.55C1294.64,893.556 1309.63,686.278 1153.43,508.128C1558.59,721.659 1369.24,1278.96 1019.74,1374.52C1072.95,1131.04 907.181,866.564 754.196,826.771C584.922,782.741 627.64,1161.44 646.347,1263.87C581.213,1219.33 473.966,1082.55 460.305,926.531C447.642,781.897 487.321,732.509 470.729,600.549C541.5,662.745 607.208,628.473 684.534,608.064Z" style="fill:rgb(0,5,89);"/>
        </g>
    </g>
    <g id="_2-color-with-wordmark" serif:id="2 color with wordmark" transform="matrix(1,0,0,1,52.7915,-83.0889)">
        <g transform="matrix(4.18492,0,0,4.18492,-3145.42,-381.293)">
            <text x="990.829px" y="479.451px" style="font-family:'Jost-Book', 'Jost*';font-size:50px;fill:rgb(0,5,89);">NO<tspan x="1067.58px 1095.58px " y="479.451px 479.451px ">VA</tspan></text>
            <text x="1128.58px" y="473.681px" style="font-family:'Jost-Book', 'Jost*';font-size:50px;fill:rgb(0,5,89);">-</text>
            <text x="1139.08px" y="479.451px" style="font-family:'Jost-Book', 'Jost*';font-size:50px;fill:rgb(0,5,89);">V<tspan x="1171.33px 1209.33px " y="479.451px 479.451px ">OX</tspan></text>
        </g>
        <g transform="matrix(0.562655,0,0,0.562655,-55.6725,1102.98)">
            <g transform="matrix(0.949383,0,0,0.949383,401.651,-95.7422)">
                <path d="M746.416,825.014C586.249,794.489 627.932,1163.04 646.347,1263.87C594.129,1228.16 514.844,1133.17 478.454,1016.47C451.252,923.248 585.989,783.018 754.196,826.771L746.416,825.014Z" style="fill:rgb(0,5,89);"/>
            </g>
            <g transform="matrix(0.949383,0,0,0.949383,401.651,-95.7422)">
                <path d="M1161.11,1111.15C1295.41,880.609 1304.74,680.702 1153.43,508.128C1384.41,629.862 1422.17,863.326 1347.11,1059.27C1280.28,1171.91 1131.35,1212.88 1147.72,1133.55L1161.11,1111.15Z" style="fill:rgb(0,5,89);"/>
            </g>
            <g transform="matrix(0.949383,0,0,0.949383,401.651,-95.7422)">
                <path d="M752.384,596.036C946.189,597.512 1203,865.762 1147.72,1133.55C1131.35,1212.88 1280.28,1171.91 1347.11,1059.27L1345.31,1063.99L1342.98,1069.84L1338.91,1079.55L1336.66,1084.8L1331.32,1096.54L1329.94,1099.53L1322.78,1114.05L1320.7,1118.01L1315.18,1128.4L1312.26,1133.61L1307.14,1142.58L1303.88,1148.05L1298.63,1156.63L1295.24,1162L1289.54,1170.7L1286.28,1175.59L1279.29,1185.56L1276.96,1188.86L1267.29,1201.81L1264.87,1204.86L1257.22,1214.46L1253.49,1218.93L1246.76,1226.85L1242.59,1231.58L1235.87,1238.99L1231.55,1243.62L1224.45,1250.97L1220.27,1255.21L1211.97,1263.25L1208.71,1266.38L1196.85,1277.14L1194.51,1279.13L1184.65,1287.49L1180.29,1290.99L1172.11,1297.45L1167.17,1301.19L1159.19,1307.05L1154.07,1310.69L1145.79,1316.33L1140.81,1319.64L1131.46,1325.53L1127.33,1328.1L1113.61,1336.04L1111.94,1336.93L1099.62,1343.46L1094.82,1345.83L1085.34,1350.39L1079.79,1352.9L1070.74,1356.84L1064.95,1359.22L1055.71,1362.8L1050.04,1364.91L1039.87,1368.38L1034.98,1370.01L1019.74,1374.52C1072.95,1131.04 907.181,866.564 754.196,826.771L746.287,824.842C581.798,787.409 451.679,924.712 478.454,1016.47L477.772,1014.32L476.425,1009.88L473.84,1000.77L472.827,997.104L469.622,984.284L469.177,982.26L466.816,971.299L465.984,966.96L464.376,958.017L463.611,953.316L462.289,944.111L461.73,939.911L460.305,926.531C447.642,781.897 487.321,732.509 470.729,600.549L477.35,606.101C505.977,628.958 533.854,636.468 562.105,636.027L568.631,635.786C605.647,633.664 643.451,618.908 684.534,608.064C705.742,599.699 728.595,595.855 752.384,596.036Z" style="fill:rgb(89,47,129);"/>
            </g>
        </g>
    </g>
    <g id="_1-color" serif:id="1 color" transform="matrix(0.840238,0,0,0.840238,1074.71,-112.919)">
        <path d="M684.534,608.064C878.388,531.602 1209.79,832.867 1147.72,1133.55C1294.64,893.556 1309.63,686.278 1153.43,508.128C1558.59,721.659 1369.24,1278.96 1019.74,1374.52C1072.95,1131.04 907.181,866.564 754.196,826.771C584.922,782.741 627.64,1161.44 646.347,1263.87C581.213,1219.33 473.966,1082.55 460.305,926.531C447.642,781.897 487.321,732.509 470.729,600.549C541.5,662.745 607.208,628.473 684.534,608.064Z" style="fill:rgb(89,47,129);"/>
    </g>
    <g id="_2-color" serif:id="2 color" transform="matrix(0.88506,0,0,0.88506,-463.04,-65.1336)">
        <g transform="matrix(0.949383,0,0,0.949383,401.651,-95.7422)">
            <path d="M746.416,825.014C586.249,794.489 627.932,1163.04 646.347,1263.87C594.129,1228.16 514.844,1133.17 478.454,1016.47C451.252,923.248 585.989,783.018 754.196,826.771L746.416,825.014Z" style="fill:rgb(0,5,89);"/>
        </g>
        <g transform="matrix(0.949383,0,0,0.949383,401.651,-95.7422)">
            <path d="M1161.11,1111.15C1295.41,880.609 1304.74,680.702 1153.43,508.128C1384.41,629.862 1422.17,863.326 1347.11,1059.27C1280.28,1171.91 1131.35,1212.88 1147.72,1133.55L1161.11,1111.15Z" style="fill:rgb(0,5,89);"/>
        </g>
        <g transform="matrix(0.949383,0,0,0.949383,401.651,-95.7422)">
            <path d="M752.384,596.036C946.189,597.512 1203,865.762 1147.72,1133.55C1131.35,1212.88 1280.28,1171.91 1347.11,1059.27L1345.31,1063.99L1342.98,1069.84L1338.91,1079.55L1336.66,1084.8L1331.32,1096.54L1329.94,1099.53L1322.78,1114.05L1320.7,1118.01L1315.18,1128.4L1312.26,1133.61L1307.14,1142.58L1303.88,1148.05L1298.63,1156.63L1295.24,1162L1289.54,1170.7L1286.28,1175.59L1279.29,1185.56L1276.96,1188.86L1267.29,1201.81L1264.87,1204.86L1257.22,1214.46L1253.49,1218.93L1246.76,1226.85L1242.59,1231.58L1235.87,1238.99L1231.55,1243.62L1224.45,1250.97L1220.27,1255.21L1211.97,1263.25L1208.71,1266.38L1196.85,1277.14L1194.51,1279.13L1184.65,1287.49L1180.29,1290.99L1172.11,1297.45L1167.17,1301.19L1159.19,1307.05L1154.07,1310.69L1145.79,1316.33L1140.81,1319.64L1131.46,1325.53L1127.33,1328.1L1113.61,1336.04L1111.94,1336.93L1099.62,1343.46L1094.82,1345.83L1085.34,1350.39L1079.79,1352.9L1070.74,1356.84L1064.95,1359.22L1055.71,1362.8L1050.04,1364.91L1039.87,1368.38L1034.98,1370.01L1019.74,1374.52C1072.95,1131.04 907.181,866.564 754.196,826.771L746.287,824.842C581.798,787.409 451.679,924.712 478.454,1016.47L477.772,1014.32L476.425,1009.88L473.84,1000.77L472.827,997.104L469.622,984.284L469.177,982.26L466.816,971.299L465.984,966.96L464.376,958.017L463.611,953.316L462.289,944.111L461.73,939.911L460.305,926.531C447.642,781.897 487.321,732.509 470.729,600.549L477.35,606.101C505.977,628.958 533.854,636.468 562.105,636.027L568.631,635.786C605.647,633.664 643.451,618.908 684.534,608.064C705.742,599.699 728.595,595.855 752.384,596.036Z" style="fill:rgb(89,47,129);"/>
        </g>
    </g>
</svg>
